<?xml version="1.0" encoding="utf-8"?><svg xmlns="http://www.w3.org/2000/svg" xmlns:xlink="http://www.w3.org/1999/xlink" width="243" height="243" preserveAspectRatio="xMidYMid" viewBox="0 0 243 243" style="display:block;background-repeat-y:initial;background-repeat-x:initial;background-color:rgb(247, 247, 247);animation-play-state:paused" ><g transform="scale(0.95)" style="transform:matrix(0.95, 0, 0, 0.95, 0, 0);animation-play-state:paused" ><defs style="animation-play-state:paused" ><g id="id-0.640156496330482" style="animation-play-state:paused" ><g style="animation-play-state:paused" ><path d="M47.5,90l1.1-36.2c0-0.8,0.7-1.4,1.4-1.3c0.7,0,1.3,0.6,1.3,1.3L52.5,90c0,1.4-1,2.5-2.4,2.6 s-2.5-1-2.6-2.4C47.5,90.1,47.5,90,47.5,90z" data-fill="c1" style="fill:rgb(51, 51, 51);animation-play-state:paused" ></path></g>
<g style="animation-play-state:paused" ><path d="M79.4,45.4c-10.7,9.9-28.3,8.3-28.3,8.3 S50.8,36,61.5,26.1s28.3-8.3,28.3-8.3S90.1,35.5,79.4,45.4z" data-fill="c2" data-stroke="c1" style="stroke-width:3.5px;stroke-miterlimit:10;stroke:rgb(51, 51, 51);fill:rgb(69, 201, 172);animation-play-state:paused" ></path>
<g style="animation-play-state:paused" ><path d="M61.4,44.2c1-1.9,2.3-3.6,3.6-5.3c1.4-1.6,2.8-3.1,4.3-4.5c1.5-1.4,3.1-2.7,4.8-4 c1.7-1.2,3.5-2.4,5.5-3.2c-1,2-2.3,3.6-3.6,5.3c-1.4,1.6-2.8,3.1-4.3,4.5c-1.5,1.4-3.1,2.7-4.8,4C65.2,42.2,63.4,43.3,61.4,44.2z" data-fill="c1" style="fill:rgb(51, 51, 51);animation-play-state:paused" ></path></g></g>
<g style="animation-play-state:paused" ><path d="M20.6,45.4c10.7,9.9,28.3,8.3,28.3,8.3 S49.2,36,38.5,26.1s-28.3-8.3-28.3-8.3S9.9,35.5,20.6,45.4z" data-fill="c2" data-stroke="c1" style="stroke-width:3.5px;stroke-miterlimit:10;stroke:rgb(51, 51, 51);fill:rgb(69, 201, 172);animation-play-state:paused" ></path>
<g style="animation-play-state:paused" ><path d="M38.6,44.2c-2-0.9-3.8-2-5.5-3.2c-1.7-1.2-3.3-2.6-4.8-4c-1.5-1.4-3-2.9-4.3-4.5 c-1.3-1.6-2.6-3.3-3.6-5.3c2,0.9,3.8,2,5.5,3.2c1.7,1.2,3.3,2.6,4.8,4c1.5,1.4,3,2.9,4.3,4.5C36.3,40.5,37.6,42.2,38.6,44.2z" data-fill="c1" style="fill:rgb(51, 51, 51);animation-play-state:paused" ></path></g></g>
<metadata xmlns:d="https://loading.io/stock/" style="animation-play-state:paused" ><d:name style="animation-play-state:paused" >leaf</d:name>
<d:tags style="animation-play-state:paused" >leaf,plant,leaves,tree,bud,burgreen,shoot,sprout,stem,grow,newbie,tender</d:tags>
<d:license style="animation-play-state:paused" >by</d:license>
<d:slug style="animation-play-state:paused" >ijxb1a</d:slug></metadata></g></defs>













<g data-idx="0" data-dup="" dx="-128" dy="-128" style="transform-origin:64px 68.1238px;transform:matrix(1, 0, 0, 1, 0, 0);animation-timing-function:linear;animation-play-state:paused;animation-name:beat-1fb193e9-e818-4efb-b86e-a5d317f49cd9;animation-iteration-count:infinite;animation-fill-mode:forwards;animation-duration:1s" ><g transform="translate(-128,-128)" style="transform:matrix(1, 0, 0, 1, -128, -128);animation-play-state:paused" ><g transform=" translate(192,191.9995) scale(0.8888888888888888)" style="transform:matrix(0.888889, 0, 0, 0.888889, 192, 191.999);animation-play-state:paused" ><g data-icon="" transform="scale(0.9)" style="transform:matrix(0.9, 0, 0, 0.9, 0, 0);animation-play-state:paused" ><use xlink:href="#id-0.640156496330482" x="-50" y="-50" style="animation-play-state:paused" ></use></g></g></g></g>
<g data-idx="0" data-dup="" dx="128" dy="-128" style="transform-origin:320px 68.1238px;transform:matrix(1, 0, 0, 1, 0, 0);animation-timing-function:linear;animation-play-state:paused;animation-name:beat-1fb193e9-e818-4efb-b86e-a5d317f49cd9;animation-iteration-count:infinite;animation-fill-mode:forwards;animation-duration:1s" ><g transform="translate(128,-128)" style="transform:matrix(1, 0, 0, 1, 128, -128);animation-play-state:paused" ><g transform=" translate(192,191.9995) scale(0.8888888888888888)" style="transform:matrix(0.888889, 0, 0, 0.888889, 192, 191.999);animation-play-state:paused" ><g data-icon="" transform="scale(0.9)" style="transform:matrix(0.9, 0, 0, 0.9, 0, 0);animation-play-state:paused" ><use xlink:href="#id-0.640156496330482" x="-50" y="-50" style="animation-play-state:paused" ></use></g></g></g></g>
<g data-idx="1" data-dup="" dx="-128" dy="-128" style="transform-origin:-64px -59.8762px;transform:matrix(1, 0, 0, 1, 0, 0);animation-timing-function:linear;animation-play-state:paused;animation-name:beat-1fb193e9-e818-4efb-b86e-a5d317f49cd9;animation-iteration-count:infinite;animation-fill-mode:forwards;animation-duration:1s" ><g transform="translate(-128,-128)" style="transform:matrix(1, 0, 0, 1, -128, -128);animation-play-state:paused" ><g transform=" translate(64,63.9995) scale(0.8888888888888888)" style="transform:matrix(0.888889, 0, 0, 0.888889, 64, 63.9995);animation-play-state:paused" ><g data-icon="" transform="scale(0.9)" style="transform:matrix(0.9, 0, 0, 0.9, 0, 0);animation-play-state:paused" ><use xlink:href="#id-0.640156496330482" x="-50" y="-50" style="animation-play-state:paused" ></use></g></g></g></g>
<g data-idx="1" data-dup="" dx="128" dy="-128" style="transform-origin:192px -59.8762px;transform:matrix(1, 0, 0, 1, 0, 0);animation-timing-function:linear;animation-play-state:paused;animation-name:beat-1fb193e9-e818-4efb-b86e-a5d317f49cd9;animation-iteration-count:infinite;animation-fill-mode:forwards;animation-duration:1s" ><g transform="translate(128,-128)" style="transform:matrix(1, 0, 0, 1, 128, -128);animation-play-state:paused" ><g transform=" translate(64,63.9995) scale(0.8888888888888888)" style="transform:matrix(0.888889, 0, 0, 0.888889, 64, 63.9995);animation-play-state:paused" ><g data-icon="" transform="scale(0.9)" style="transform:matrix(0.9, 0, 0, 0.9, 0, 0);animation-play-state:paused" ><use xlink:href="#id-0.640156496330482" x="-50" y="-50" style="animation-play-state:paused" ></use></g></g></g></g>
<g data-idx="0" data-dup="" dx="-128" dy="128" style="transform-origin:64px 324.124px;transform:matrix(1, 0, 0, 1, 0, 0);animation-timing-function:linear;animation-play-state:paused;animation-name:beat-1fb193e9-e818-4efb-b86e-a5d317f49cd9;animation-iteration-count:infinite;animation-fill-mode:forwards;animation-duration:1s" ><g transform="translate(-128,128)" style="transform:matrix(1, 0, 0, 1, -128, 128);animation-play-state:paused" ><g transform=" translate(192,191.9995) scale(0.8888888888888888)" style="transform:matrix(0.888889, 0, 0, 0.888889, 192, 191.999);animation-play-state:paused" ><g data-icon="" transform="scale(0.9)" style="transform:matrix(0.9, 0, 0, 0.9, 0, 0);animation-play-state:paused" ><use xlink:href="#id-0.640156496330482" x="-50" y="-50" style="animation-play-state:paused" ></use></g></g></g></g>
<g data-idx="0" data-dup="" dx="128" dy="128" style="transform-origin:320px 324.124px;transform:matrix(1, 0, 0, 1, 0, 0);animation-timing-function:linear;animation-play-state:paused;animation-name:beat-1fb193e9-e818-4efb-b86e-a5d317f49cd9;animation-iteration-count:infinite;animation-fill-mode:forwards;animation-duration:1s" ><g transform="translate(128,128)" style="transform:matrix(1, 0, 0, 1, 128, 128);animation-play-state:paused" ><g transform=" translate(192,191.9995) scale(0.8888888888888888)" style="transform:matrix(0.888889, 0, 0, 0.888889, 192, 191.999);animation-play-state:paused" ><g data-icon="" transform="scale(0.9)" style="transform:matrix(0.9, 0, 0, 0.9, 0, 0);animation-play-state:paused" ><use xlink:href="#id-0.640156496330482" x="-50" y="-50" style="animation-play-state:paused" ></use></g></g></g></g>
<g data-idx="1" data-dup="" dx="-128" dy="128" style="transform-origin:-64px 196.124px;transform:matrix(1, 0, 0, 1, 0, 0);animation-timing-function:linear;animation-play-state:paused;animation-name:beat-1fb193e9-e818-4efb-b86e-a5d317f49cd9;animation-iteration-count:infinite;animation-fill-mode:forwards;animation-duration:1s" ><g transform="translate(-128,128)" style="transform:matrix(1, 0, 0, 1, -128, 128);animation-play-state:paused" ><g transform=" translate(64,63.9995) scale(0.8888888888888888)" style="transform:matrix(0.888889, 0, 0, 0.888889, 64, 63.9995);animation-play-state:paused" ><g data-icon="" transform="scale(0.9)" style="transform:matrix(0.9, 0, 0, 0.9, 0, 0);animation-play-state:paused" ><use xlink:href="#id-0.640156496330482" x="-50" y="-50" style="animation-play-state:paused" ></use></g></g></g></g>
<g data-idx="1" data-dup="" dx="128" dy="128" style="transform-origin:192px 196.124px;transform:matrix(1, 0, 0, 1, 0, 0);animation-timing-function:linear;animation-play-state:paused;animation-name:beat-1fb193e9-e818-4efb-b86e-a5d317f49cd9;animation-iteration-count:infinite;animation-fill-mode:forwards;animation-duration:1s" ><g transform="translate(128,128)" style="transform:matrix(1, 0, 0, 1, 128, 128);animation-play-state:paused" ><g transform=" translate(64,63.9995) scale(0.8888888888888888)" style="transform:matrix(0.888889, 0, 0, 0.888889, 64, 63.9995);animation-play-state:paused" ><g data-icon="" transform="scale(0.9)" style="transform:matrix(0.9, 0, 0, 0.9, 0, 0);animation-play-state:paused" ><use xlink:href="#id-0.640156496330482" x="-50" y="-50" style="animation-play-state:paused" ></use></g></g></g></g></g></svg>